<svg width="500" height="500" viewport="0 0 500 500" xmlns="http://www.w3.org/2000/svg" version="1.1">

  <defs>
    <marker id='head' orient="auto" markerWidth='3' markerHeight='4' refX='0.1' refY='2'>
      <path d='M0,0 V4 L2,2 Z' fill="#666" />
    </marker>
  </defs>

<g fill="transparent" stroke="#914DFA" stroke-width="3" transform="translate(225 150) scale(2)">
<path d="M 15,0 v 10 h 10 v 20 h -25 v -30 Z M 15 0 l 10 10 Z"/></g>
<g fill="#914DFA" stroke="0" transform="translate(208 60) scale(2)">
<circle cx="20" cy="10" r="10"/><path d="M 0 40 q 0,-22 20,-22 q 20,0 20,22 Z"/></g>


<g fill="transparent" stroke="#FA961B" stroke-width="3" transform="translate(125 300) scale(2)">
<path d="M 15,0 v 10 h 10 v 20 h -25 v -30 Z M 15 0 l 10 10 Z"/></g>
<g fill="#FA961B" stroke="0" transform="translate(55 350) scale(2)">
<circle cx="20" cy="10" r="10"/><path d="M 0 40 q 0,-22 20,-22 q 20,0 20,22 Z"/></g>


<g fill="transparent" stroke="#13AD35" stroke-width="3" transform="translate(325 300) scale(2)">
<path d="M 15,0 v 10 h 10 v 20 h -25 v -30 Z M 15 0 l 10 10 Z"/></g>
<g fill="#13AD35" stroke="0" transform="translate(365 350) scale(2)">
<circle cx="20" cy="10" r="10"/><path d="M 0 40 q 0,-22 20,-22 q 20,0 20,22 Z"/></g>


<path marker-end="url(#head)" stroke-width="5" fill="transparent" stroke="#666" d="M 210,325 h 80" />
<path marker-end="url(#head)" stroke-width="5" fill="transparent" stroke="#666" d="M 290,325 h -80" />
<text x="250" y="350" text-anchor="middle" font-weight="bold" font-family="sans-serif">sync</text>

<path marker-end="url(#head)" stroke-width="5" fill="transparent" stroke="#666" d="M 180,280 l 45 -50" />
<path marker-end="url(#head)" stroke-width="5" fill="transparent" stroke="#666" d="M 225,230 l -45 50" />
<g transform="rotate(-45 192.5 245)"><text x="192.5" y="245" text-anchor="middle" font-weight="bold" font-family="sans-serif">sync</text></g>

<path marker-end="url(#head)" stroke-width="5" fill="transparent" stroke="#666" d="M 275,230 l 45 50" />
<path marker-end="url(#head)" stroke-width="5" fill="transparent" stroke="#666" d="M 320,280 l -45 -50" />
<g transform="rotate(50 312.5 245)"><text x="312.5" y="245" text-anchor="middle" font-weight="bold" font-family="sans-serif">sync</text></g>

</svg>
