<svg width="500" height="400" viewport="0 0 500 400" xmlns="http://www.w3.org/2000/svg" version="1.1">
  <g transform="translate(0.000000 0.000000)"><circle cx="20" cy="10" r="10" fill="#914DFA" stroke="0"/><path d="M 0 40 q 0,-22 20,-22 q 20,0 20,22 Z" fill="#914DFA" stroke="0"/>
  <g transform="translate(0.000000 42.000000)"><rect x="0.000000" y="0.000000" width="12.000000" height="12.000000" fill="#914DFA" stroke="0"/><text x="6.000000" y="6.000000" font-size="10" font-weight="bold" fill="white" dominant-baseline="central" text-anchor="middle" font-family="sans">9</text><rect x="14.000000" y="0.000000" width="12.000000" height="12.000000" fill="#FA961B" stroke="0"/><text x="20.000000" y="6.000000" font-size="10" font-weight="bold" fill="white" dominant-baseline="central" text-anchor="middle" font-family="sans">0</text><rect x="28.000000" y="0.000000" width="12.000000" height="12.000000" fill="#13AD35" stroke="0"/><text x="34.000000" y="6.000000" font-size="10" font-weight="bold" fill="white" dominant-baseline="central" text-anchor="middle" font-family="sans">3</text></g></g>

  <g transform="translate(230.000000 0.000000)"><circle cx="20" cy="10" r="10" fill="#FA961B" stroke="0"/><path d="M 0 40 q 0,-22 20,-22 q 20,0 20,22 Z" fill="#FA961B" stroke="0"/>
  <g transform="translate(0.000000 42.000000)"><rect x="0.000000" y="0.000000" width="12.000000" height="12.000000" fill="#914DFA" stroke="0"/><text x="6.000000" y="6.000000" font-size="10" font-weight="bold" fill="white" dominant-baseline="central" text-anchor="middle" font-family="sans">7</text><rect x="14.000000" y="0.000000" width="12.000000" height="12.000000" fill="#FA961B" stroke="0"/><text x="20.000000" y="6.000000" font-size="10" font-weight="bold" fill="white" dominant-baseline="central" text-anchor="middle" font-family="sans">2</text><rect x="28.000000" y="0.000000" width="12.000000" height="12.000000" fill="#13AD35" stroke="0"/><text x="34.000000" y="6.000000" font-size="10" font-weight="bold" fill="white" dominant-baseline="central" text-anchor="middle" font-family="sans">4</text></g></g>

  <g transform="translate(460.000000 0.000000)"><circle cx="20" cy="10" r="10" fill="#13AD35" stroke="0"/><path d="M 0 40 q 0,-22 20,-22 q 20,0 20,22 Z" fill="#13AD35" stroke="0"/>
  <g transform="translate(0.000000 42.000000)"><rect x="0.000000" y="0.000000" width="12.000000" height="12.000000" fill="#914DFA" stroke="0"/><text x="6.000000" y="6.000000" font-size="10" font-weight="bold" fill="white" dominant-baseline="central" text-anchor="middle" font-family="sans">5</text><rect x="14.000000" y="0.000000" width="12.000000" height="12.000000" fill="#FA961B" stroke="0"/><text x="20.000000" y="6.000000" font-size="10" font-weight="bold" fill="white" dominant-baseline="central" text-anchor="middle" font-family="sans">1</text><rect x="28.000000" y="0.000000" width="12.000000" height="12.000000" fill="#13AD35" stroke="0"/><text x="34.000000" y="6.000000" font-size="10" font-weight="bold" fill="white" dominant-baseline="central" text-anchor="middle" font-family="sans">5</text></g></g>

  <g transform="translate(0.000000 115.000000)"><circle cx="20" cy="10" r="10" fill="#914DFA" stroke="0"/><path d="M 0 40 q 0,-22 20,-22 q 20,0 20,22 Z" fill="#914DFA" stroke="0"/>
  <g transform="translate(0.000000 42.000000)"><rect x="0.000000" y="0.000000" width="12.000000" height="12.000000" fill="#914DFA" stroke="0"/><text x="6.000000" y="6.000000" font-size="10" font-weight="bold" fill="white" dominant-baseline="central" text-anchor="middle" font-family="sans">9</text><rect x="14.000000" y="0.000000" width="12.000000" height="12.000000" fill="#FA961B" stroke="0"/><text x="20.000000" y="6.000000" font-size="10" font-weight="bold" fill="white" dominant-baseline="central" text-anchor="middle" font-family="sans">2</text><rect x="28.000000" y="0.000000" width="12.000000" height="12.000000" fill="#13AD35" stroke="0"/><text x="34.000000" y="6.000000" font-size="10" font-weight="bold" fill="white" dominant-baseline="central" text-anchor="middle" font-family="sans">4</text></g></g>

  <g transform="translate(230.000000 115.000000)"><circle cx="20" cy="10" r="10" fill="#FA961B" stroke="0"/><path d="M 0 40 q 0,-22 20,-22 q 20,0 20,22 Z" fill="#FA961B" stroke="0"/>
  <g transform="translate(0.000000 42.000000)"><rect x="0.000000" y="0.000000" width="12.000000" height="12.000000" fill="#914DFA" stroke="0"/><text x="6.000000" y="6.000000" font-size="10" font-weight="bold" fill="white" dominant-baseline="central" text-anchor="middle" font-family="sans">9</text><rect x="14.000000" y="0.000000" width="12.000000" height="12.000000" fill="#FA961B" stroke="0"/><text x="20.000000" y="6.000000" font-size="10" font-weight="bold" fill="white" dominant-baseline="central" text-anchor="middle" font-family="sans">2</text><rect x="28.000000" y="0.000000" width="12.000000" height="12.000000" fill="#13AD35" stroke="0"/><text x="34.000000" y="6.000000" font-size="10" font-weight="bold" fill="white" dominant-baseline="central" text-anchor="middle" font-family="sans">4</text></g></g>

  <g transform="translate(460.000000 115.000000)"><circle cx="20" cy="10" r="10" fill="#13AD35" stroke="0"/><path d="M 0 40 q 0,-22 20,-22 q 20,0 20,22 Z" fill="#13AD35" stroke="0"/>
  <g transform="translate(0.000000 42.000000)"><rect x="0.000000" y="0.000000" width="12.000000" height="12.000000" fill="#914DFA" stroke="0"/><text x="6.000000" y="6.000000" font-size="10" font-weight="bold" fill="white" dominant-baseline="central" text-anchor="middle" font-family="sans">5</text><rect x="14.000000" y="0.000000" width="12.000000" height="12.000000" fill="#FA961B" stroke="0"/><text x="20.000000" y="6.000000" font-size="10" font-weight="bold" fill="white" dominant-baseline="central" text-anchor="middle" font-family="sans">1</text><rect x="28.000000" y="0.000000" width="12.000000" height="12.000000" fill="#13AD35" stroke="0"/><text x="34.000000" y="6.000000" font-size="10" font-weight="bold" fill="white" dominant-baseline="central" text-anchor="middle" font-family="sans">5</text></g></g>
  <path xxxxxxxxxxxxxxxxxxxxxxxxxxx="0" d="M 20,58.3333333333 v 10 H 250 v -10 M 20,105 v -10 H 250 v 10 M 135,68.3333333333 v 7.3333333333 m 0 12 v 7.3333333333" fill="none" stroke="#666" stroke-width="3"/><text x="135.000000" y="81.666667" text-anchor="middle" dominant-baseline="central" font-size="10" font-weight="bold" font-family="sans" fill="#666">sync</text>

  <g transform="translate(0.000000 230.000000)"><circle cx="20" cy="10" r="10" fill="#914DFA" stroke="0"/><path d="M 0 40 q 0,-22 20,-22 q 20,0 20,22 Z" fill="#914DFA" stroke="0"/>
  <g transform="translate(0.000000 42.000000)"><rect x="0.000000" y="0.000000" width="12.000000" height="12.000000" fill="#914DFA" stroke="0"/><text x="6.000000" y="6.000000" font-size="10" font-weight="bold" fill="white" dominant-baseline="central" text-anchor="middle" font-family="sans">9</text><rect x="14.000000" y="0.000000" width="12.000000" height="12.000000" fill="#FA961B" stroke="0"/><text x="20.000000" y="6.000000" font-size="10" font-weight="bold" fill="white" dominant-baseline="central" text-anchor="middle" font-family="sans">2</text><rect x="28.000000" y="0.000000" width="12.000000" height="12.000000" fill="#13AD35" stroke="0"/><text x="34.000000" y="6.000000" font-size="10" font-weight="bold" fill="white" dominant-baseline="central" text-anchor="middle" font-family="sans">4</text></g></g>

  <g transform="translate(230.000000 230.000000)"><circle cx="20" cy="10" r="10" fill="#FA961B" stroke="0"/><path d="M 0 40 q 0,-22 20,-22 q 20,0 20,22 Z" fill="#FA961B" stroke="0"/>
  <g transform="translate(0.000000 42.000000)"><rect x="0.000000" y="0.000000" width="12.000000" height="12.000000" fill="#914DFA" stroke="0"/><text x="6.000000" y="6.000000" font-size="10" font-weight="bold" fill="white" dominant-baseline="central" text-anchor="middle" font-family="sans">9</text><rect x="14.000000" y="0.000000" width="12.000000" height="12.000000" fill="#FA961B" stroke="0"/><text x="20.000000" y="6.000000" font-size="10" font-weight="bold" fill="white" dominant-baseline="central" text-anchor="middle" font-family="sans">2</text><rect x="28.000000" y="0.000000" width="12.000000" height="12.000000" fill="#13AD35" stroke="0"/><text x="34.000000" y="6.000000" font-size="10" font-weight="bold" fill="white" dominant-baseline="central" text-anchor="middle" font-family="sans">5</text></g></g>

  <g transform="translate(460.000000 230.000000)"><circle cx="20" cy="10" r="10" fill="#13AD35" stroke="0"/><path d="M 0 40 q 0,-22 20,-22 q 20,0 20,22 Z" fill="#13AD35" stroke="0"/>
  <g transform="translate(0.000000 42.000000)"><rect x="0.000000" y="0.000000" width="12.000000" height="12.000000" fill="#914DFA" stroke="0"/><text x="6.000000" y="6.000000" font-size="10" font-weight="bold" fill="white" dominant-baseline="central" text-anchor="middle" font-family="sans">9</text><rect x="14.000000" y="0.000000" width="12.000000" height="12.000000" fill="#FA961B" stroke="0"/><text x="20.000000" y="6.000000" font-size="10" font-weight="bold" fill="white" dominant-baseline="central" text-anchor="middle" font-family="sans">2</text><rect x="28.000000" y="0.000000" width="12.000000" height="12.000000" fill="#13AD35" stroke="0"/><text x="34.000000" y="6.000000" font-size="10" font-weight="bold" fill="white" dominant-baseline="central" text-anchor="middle" font-family="sans">5</text></g></g>
  <path xxxxxxxxxxxxxxxxxxxxxxxxxxx="0" d="M 250,178.333333333 v 10 H 480 v -10 M 250,225 v -10 H 480 v 10 M 365,188.333333333 v 7.3333333333 m 0 12 v 7.3333333333" fill="none" stroke="#666" stroke-width="3"/><text x="365.000000" y="201.666667" text-anchor="middle" dominant-baseline="central" font-size="10" font-weight="bold" font-family="sans" fill="#666">sync</text>

  <g transform="translate(0.000000 345.000000)"><circle cx="20" cy="10" r="10" fill="#914DFA" stroke="0"/><path d="M 0 40 q 0,-22 20,-22 q 20,0 20,22 Z" fill="#914DFA" stroke="0"/>
  <g transform="translate(0.000000 42.000000)"><rect x="0.000000" y="0.000000" width="12.000000" height="12.000000" fill="#914DFA" stroke="0"/><text x="6.000000" y="6.000000" font-size="10" font-weight="bold" fill="white" dominant-baseline="central" text-anchor="middle" font-family="sans">9</text><rect x="14.000000" y="0.000000" width="12.000000" height="12.000000" fill="#FA961B" stroke="0"/><text x="20.000000" y="6.000000" font-size="10" font-weight="bold" fill="white" dominant-baseline="central" text-anchor="middle" font-family="sans">2</text><rect x="28.000000" y="0.000000" width="12.000000" height="12.000000" fill="#13AD35" stroke="0"/><text x="34.000000" y="6.000000" font-size="10" font-weight="bold" fill="white" dominant-baseline="central" text-anchor="middle" font-family="sans">5</text></g></g>

  <g transform="translate(230.000000 345.000000)"><circle cx="20" cy="10" r="10" fill="#FA961B" stroke="0"/><path d="M 0 40 q 0,-22 20,-22 q 20,0 20,22 Z" fill="#FA961B" stroke="0"/>
  <g transform="translate(0.000000 42.000000)"><rect x="0.000000" y="0.000000" width="12.000000" height="12.000000" fill="#914DFA" stroke="0"/><text x="6.000000" y="6.000000" font-size="10" font-weight="bold" fill="white" dominant-baseline="central" text-anchor="middle" font-family="sans">9</text><rect x="14.000000" y="0.000000" width="12.000000" height="12.000000" fill="#FA961B" stroke="0"/><text x="20.000000" y="6.000000" font-size="10" font-weight="bold" fill="white" dominant-baseline="central" text-anchor="middle" font-family="sans">2</text><rect x="28.000000" y="0.000000" width="12.000000" height="12.000000" fill="#13AD35" stroke="0"/><text x="34.000000" y="6.000000" font-size="10" font-weight="bold" fill="white" dominant-baseline="central" text-anchor="middle" font-family="sans">5</text></g></g>

  <g transform="translate(460.000000 345.000000)"><circle cx="20" cy="10" r="10" fill="#13AD35" stroke="0"/><path d="M 0 40 q 0,-22 20,-22 q 20,0 20,22 Z" fill="#13AD35" stroke="0"/>
  <g transform="translate(0.000000 42.000000)"><rect x="0.000000" y="0.000000" width="12.000000" height="12.000000" fill="#914DFA" stroke="0"/><text x="6.000000" y="6.000000" font-size="10" font-weight="bold" fill="white" dominant-baseline="central" text-anchor="middle" font-family="sans">9</text><rect x="14.000000" y="0.000000" width="12.000000" height="12.000000" fill="#FA961B" stroke="0"/><text x="20.000000" y="6.000000" font-size="10" font-weight="bold" fill="white" dominant-baseline="central" text-anchor="middle" font-family="sans">2</text><rect x="28.000000" y="0.000000" width="12.000000" height="12.000000" fill="#13AD35" stroke="0"/><text x="34.000000" y="6.000000" font-size="10" font-weight="bold" fill="white" dominant-baseline="central" text-anchor="middle" font-family="sans">5</text></g></g>
  <path xxxxxxxxxxxxxxxxxxxxxxxxxxx="0" d="M 20,293.333333333 v 10 H 480 v -10 M 20,340 v -10 H 480 v 10 M 250,303.333333333 v 7.3333333333 m 0 12 v 7.3333333333" fill="none" stroke="#666" stroke-width="3"/><text x="250.000000" y="316.666667" text-anchor="middle" dominant-baseline="central" font-size="10" font-weight="bold" font-family="sans" fill="#666">sync</text>
</svg>
