<svg version="1.1" xmlns="http://www.w3.org/2000/svg" width="600" height="600" viewBox="-305 -305 610 610">
  <defs>
    <linearGradient id="gradient" gradientUnits="userSpaceOnUse" x1="29" y1="29" x2="30" y2="30">
      <stop offset="0%" stop-color="#186643" />
      <stop offset="100%" stop-color="#999999" />
    </linearGradient>
    <circle id="TextPath" cx="0" cy="0" r="20.5" />
    <path id="TextPathWeb" d="M -24 0 A 24 24 0 1 0 24 0" />
  </defs>
  <g transform="scale(10)">
    <!-- <rect x="-30" y="-30" width="60" height="60" fill="#CCCCCC" /> -->


    <circle cx="0" cy="0" r="30" fill="#f7fdfa" stroke="#000000" stroke-width="0.15" />
    <circle cx="0" cy="0" r="29" fill="#186643" stroke="#000000" stroke-width="0.3" />
    <circle cx="0" cy="0" r="17" fill="#f7fdfa" stroke="#000000" stroke-width="0.15" />


    <g transform="scale(0.62)">
      <circle fill="url(#gradient)" cx="0" cy="0" r="5.5" />
      <path fill="url(#gradient)" d="m -13.75,-23.816406 3.607422,16.1718748 4.189453,3.1015624 a 7.5,7.5 0 0 1 1.5449219,-1.5253906 7.5,7.5 0 0 1 1.2148437,-0.7011718 l 0.1425782,-0.082031 z" />
      <path fill="url(#gradient)" d="M 5.953125,4.5429688 A 7.5,7.5 0 0 1 4.4082031,6.0683594 7.5,7.5 0 0 1 3.1933594,6.7695312 L 3.0507812,6.8515625 13.75,23.816406 10.142578,7.6445312 Z" />
      <path fill="url(#gradient)" d="M -4.4082031,6.0683594 -13.75,23.816406 -1.5488281,12.605469 -0.95703125,7.4257812 A 7.5,7.5 0 0 1 -3.0390625,6.8339844 l -0.011719,0.017578 -0.1425782,-0.082031 a 7.5,7.5 0 0 1 -1.2148434,-0.701172 z" />
      <path fill="#999999" d="M 13.75,-23.816406 1.5488282,-12.605469 0.9589844,-7.4355469 a 7.5,7.5 0 0 1 2.0898437,0.5859375 l 0.00195,-0.00195 0.019531,0.011718 a 7.5,7.5 0 0 1 1.3085937,0.7558594 l 0.029297,0.015625 z" />
      <path fill="#999999" d="m 11.691407,-4.9609377 -4.7734382,2.0742189 a 7.5,7.5 0 0 1 0.5390625,2.10351564 l 0.00195,7.6e-7 -4.1e-6,0.0195329 A 7.5,7.5 0 0 1 7.5,1.4191644e-8 7.5,7.5 0 0 1 7.4589843,0.52539063 l 1e-7,0.2578125 L 27.5,-1.9796397e-7 Z" />
      <path fill="#999999" d="M -7.4589844,-0.78320313 -27.5,1.9796397e-7 -11.691407,4.9609377 -6.9003906,2.8789063 A 7.5,7.5 0 0 1 -7.4394532,0.78320311 l -0.019534,-3.57e-6 -1e-7,-0.25781249 A 7.5,7.5 0 0 1 -7.5,-1.4191644e-8 7.5,7.5 0 0 1 -7.4589843,-0.52539063 Z" />
    </g>


    <text fill="#ffffff" font-size="10px" font-family="Crimson Pro">
      <textPath href="#TextPath" startOffset="75%" text-anchor="middle" xml:space="preserve">·   Propel   ·</textPath>
    </text>
    <text fill="#ffffff" font-size="6px" font-family="Crimson Pro">
      <textPath href="#TextPathWeb" startOffset="50%" text-anchor="middle" letter-spacing="0.7">propel-prover.github.io</textPath>
    </text>
  </g>
</svg>
