<svg version="1.1" xmlns="http://www.w3.org/2000/svg" width="175" height="60" viewBox="-30 -30 175 60">
  <defs>
    <linearGradient id="gradient" gradientUnits="userSpaceOnUse" x1="29" y1="29" x2="30" y2="30">
      <stop offset="0%" stop-color="#186643" />
      <stop offset="100%" stop-color="#999999" />
      <animate attributeName="x2" from="-29" to="-29" begin="0s" dur="3s" />
      <animate attributeName="y2" from="-29" to="-29" begin="0s" dur="3s" />
      <animate attributeName="x2" keySplines="0.4 0 1 1" values="-29; 30" begin="3s" dur="0.5s" />
      <animate attributeName="y2" keySplines="0.4 0 1 1" values="-29; 30" begin="3s" dur="0.5s" />
      <animate attributeName="x1" from="-30" to="-30" begin="0s" dur="3.5s" />
      <animate attributeName="y1" from="-30" to="-30" begin="0s" dur="3.5s" />
      <animate attributeName="x1" keySplines="0 0 0.6 1" values="-30; 29" begin="3.5s" dur="0.5s" />
      <animate attributeName="y1" keySplines="0 0 0.6 1" values="-30; 29" begin="3.5s" dur="0.5s" />
    </linearGradient>
  </defs>
  <circle fill="url(#gradient)" cx="0" cy="0" r="5.5" />
  <g>
    <animateTransform attributeName="transform" type="rotate" calcMode="spline" keySplines="0 0 0.6 1" values="240; 0" begin="0s" dur="3s" />
    <path fill="url(#gradient)" d="m -13.75,-23.816406 3.607422,16.1718748 4.189453,3.1015624 a 7.5,7.5 0 0 1 1.5449219,-1.5253906 7.5,7.5 0 0 1 1.2148437,-0.7011718 l 0.1425782,-0.082031 z" />
    <path fill="url(#gradient)" d="M 5.953125,4.5429688 A 7.5,7.5 0 0 1 4.4082031,6.0683594 7.5,7.5 0 0 1 3.1933594,6.7695312 L 3.0507812,6.8515625 13.75,23.816406 10.142578,7.6445312 Z" />
    <path fill="url(#gradient)" d="M -4.4082031,6.0683594 -13.75,23.816406 -1.5488281,12.605469 -0.95703125,7.4257812 A 7.5,7.5 0 0 1 -3.0390625,6.8339844 l -0.011719,0.017578 -0.1425782,-0.082031 a 7.5,7.5 0 0 1 -1.2148434,-0.701172 z" />
    <path fill="#999999" d="M 13.75,-23.816406 1.5488282,-12.605469 0.9589844,-7.4355469 a 7.5,7.5 0 0 1 2.0898437,0.5859375 l 0.00195,-0.00195 0.019531,0.011718 a 7.5,7.5 0 0 1 1.3085937,0.7558594 l 0.029297,0.015625 z" />
    <path fill="#999999" d="m 11.691407,-4.9609377 -4.7734382,2.0742189 a 7.5,7.5 0 0 1 0.5390625,2.10351564 l 0.00195,7.6e-7 -4.1e-6,0.0195329 A 7.5,7.5 0 0 1 7.5,1.4191644e-8 7.5,7.5 0 0 1 7.4589843,0.52539063 l 1e-7,0.2578125 L 27.5,-1.9796397e-7 Z" />
    <path fill="#999999" d="M -7.4589844,-0.78320313 -27.5,1.9796397e-7 -11.691407,4.9609377 -6.9003906,2.8789063 A 7.5,7.5 0 0 1 -7.4394532,0.78320311 l -0.019534,-3.57e-6 -1e-7,-0.25781249 A 7.5,7.5 0 0 1 -7.5,-1.4191644e-8 7.5,7.5 0 0 1 -7.4589843,-0.52539063 Z" />
  </g>
  <text x="37" y="12" font-family="'Crimson Pro'" font-size="40px" font-weight="300" fill="none">Propel</text>
  <path fill="#333333" d="m 48.164,12.0312 h -7.9686 l -0.0782,-1.25 2.2266,-0.5078 Q 42.3814,10.1226 42.401,9.7348 A 10.3576,10.3576 0 0 0 42.4024,9.707 q 0.0194,-0.4102 0.039,-1.5234 0.015,-0.8524 0.0184,-2.3574 A 423.1376,423.1376 0 0 0 42.461,4.8438 l 0.039,-8.711 q 0,-1.6448 -0.0228,-2.66 A 41.1296,41.1296 0 0 0 42.461,-7.0898 343.5324,343.5324 0 0 0 42.4436,-7.5558 Q 42.4234,-8.0916 42.41,-8.3924 a 32.2312,32.2312 0 0 0 -0.0076,-0.1622 6.8954,6.8954 0 0 0 -0.008,-0.1356 Q 42.3754,-8.96 42.3438,-9.0234 L 40,-9.6484 l 0.0782,-1.25 h 7.539 a 11.2792,11.2792 0 0 1 2.2802,0.217 q 1.414,0.292 2.5076,0.9766 a 6.509,6.509 0 0 1 0.7004,0.5056 5.5184,5.5184 0 0 1 1.9226,3.3728 8.2664,8.2664 0 0 1 0.1282,1.4904 7.1728,7.1728 0 0 1 -0.2286,1.8502 A 5.6804,5.6804 0 0 1 54.043,-0.6054 7.2666,7.2666 0 0 1 51.1718,1.7578 8.671,8.671 0 0 1 47.461,2.5782 17.023,17.023 0 0 1 46.5284,2.5538 12.7796,12.7796 0 0 1 45.6836,2.4804 31.9032,31.9032 0 0 1 44.917,2.378 24.3894,24.3894 0 0 1 44.2188,2.2656 V 0.4688 a 24.0046,24.0046 0 0 0 0.6836,0.1672 q 0.3064,0.0698 0.5748,0.1208 a 10.2638,10.2638 0 0 0 0.4994,0.083 10.3958,10.3958 0 0 0 0.8484,0.084 8.5868,8.5868 0 0 0 0.4796,0.0138 8.9088,8.9088 0 0 0 1.5586,-0.128 q 1.4204,-0.2526 2.3672,-1.005 1.224,-0.9724 1.3972,-2.981 a 8.0418,8.0418 0 0 0 0.0286,-0.6908 8.4578,8.4578 0 0 0 -0.1342,-1.5606 q -0.164,-0.872 -0.5282,-1.5462 a 3.9504,3.9504 0 0 0 -0.861,-1.0924 5.3394,5.3394 0 0 0 -3.4066,-1.341 6.882,6.882 0 0 0 -0.3044,-0.0066 h -2.539 a 11.077,11.077 0 0 1 -6e-4,0.1104 q -0.003,0.2888 -0.019,1.0028 a 269.9126,269.9126 0 0 0 -0.0146,0.7032 q -0.006,0.3112 -0.0122,0.653 a 488.7652,488.7652 0 0 0 -0.0122,0.7142 144.1844,144.1844 0 0 0 -0.0196,2.3632 l 0.0392,8.711 A 414.8668,414.8668 0 0 0 44.845,5.885 q 0.0036,1.4538 0.0182,2.2596 a 57.18,57.18 0 0 0 0.0104,0.466 q 0.0152,0.5766 0.0382,0.8812 a 4.8904,4.8904 0 0 0 0.01,0.1176 q 0.03,0.299 0.037,0.4836 a 2.7178,2.7178 0 0 1 0.0022,0.1024 l 3.2812,0.5078 z m 76.875,-9.2968 v 0.586 H 112.7344 V 1.7578 h 10.3516 l -0.3516,0.3126 V 1.4844 A 8.6086,8.6086 0 0 0 122.6222,0.047 q -0.1302,-0.7676 -0.4116,-1.3814 a 4.0322,4.0322 0 0 0 -0.57,-0.9116 3.5716,3.5716 0 0 0 -2.3446,-1.2626 5.1752,5.1752 0 0 0 -0.7022,-0.046 q -1.172,0 -2.2852,0.703 -1.1132,0.7032 -1.836,2.1094 -0.599,1.166 -0.7014,2.842 A 11.6918,11.6918 0 0 0 113.75,2.8126 V 3.125 q 0,3.4376 1.6406,5.293 a 5.2594,5.2594 0 0 0 3.8268,1.848 6.525,6.525 0 0 0 0.3138,0.0074 6.2552,6.2552 0 0 0 1.3178,-0.1328 4.8704,4.8704 0 0 0 1.2214,-0.4336 5.3494,5.3494 0 0 0 1.0644,-0.7372 q 0.4366,-0.3832 0.8526,-0.888 a 9.4742,9.4742 0 0 0 0.1532,-0.1912 l 0.8984,0.7812 a 8.9654,8.9654 0 0 1 -1.043,1.4538 6.5524,6.5524 0 0 1 -1.5936,1.3198 6.6728,6.6728 0 0 1 -3.1602,0.8928 7.9764,7.9764 0 0 1 -0.2968,0.0056 8.045,8.045 0 0 1 -3.281,-0.6688 7.8222,7.8222 0 0 1 -0.5862,-0.2882 7.0662,7.0662 0 0 1 -2.678,-2.5842 8.4732,8.4732 0 0 1 -0.1346,-0.2284 q -1.0258,-1.8048 -1.0538,-4.367 a 13.2156,13.2156 0 0 1 -8e-4,-0.1448 12.324,12.324 0 0 1 0.2018,-2.2884 8.8274,8.8274 0 0 1 0.8724,-2.5358 8.4854,8.4854 0 0 1 1.4218,-1.9636 7.3142,7.3142 0 0 1 1.4102,-1.1222 6.8712,6.8712 0 0 1 3.6468,-1.0366 7.3958,7.3958 0 0 1 0.1422,0.0014 q 2.8126,0.039 4.4728,1.914 a 5.8082,5.8082 0 0 1 1.1052,1.9296 q 0.3116,0.8762 0.4482,1.9582 a 14.5198,14.5198 0 0 1 0.1066,1.8154 z M 98.2032,20.625 h -7.8126 l -0.078,-1.211 2.4218,-0.5468 a 5.5456,5.5456 0 0 1 0.0012,-0.1098 q 0.0026,-0.126 0.0102,-0.3038 a 26.133,26.133 0 0 1 0.0082,-0.1724 27.2948,27.2948 0 0 0 0.0096,-0.2136 q 0.0148,-0.3478 0.0294,-0.8606 a 133.896,133.896 0 0 0 0.0146,-0.5566 q 0.0062,-0.2502 0.0122,-0.531 a 278.518,278.518 0 0 0 0.0122,-0.592 89.872,89.872 0 0 0 0.012,-0.8048 Q 92.8516,14.004 92.8516,13.125 L 92.9296,2.5782 A 33.8338,33.8338 0 0 0 92.8916,1.0034 40.7114,40.7114 0 0 0 92.832,0 76.2658,76.2658 0 0 0 92.7844,-0.6324 q -0.0622,-0.7796 -0.1156,-1.19 A 7.4792,7.4792 0 0 0 92.6562,-1.914 l -2.5,-0.547 v -1.0936 l 4.4142,-1.25 0.4686,0.5468 -0.1562,2.0704 H 95 q 1.036,-1.2432 2.1482,-1.8912 a 5.7912,5.7912 0 0 1 0.2932,-0.1596 q 1.2696,-0.6446 2.754,-0.6446 a 8.0054,8.0054 0 0 1 2.0702,0.257 6.4482,6.4482 0 0 1 1.914,0.8562 q 1.6798,1.1134 2.5978,3.0078 a 9.2604,9.2604 0 0 1 0.8908,3.4192 11.0726,11.0726 0 0 1 0.0272,0.7802 10.0756,10.0756 0 0 1 -0.3064,2.5328 8.261,8.261 0 0 1 -0.846,2.0764 q -1.1524,1.9922 -3.1054,3.125 a 8.411,8.411 0 0 1 -4.297,1.1328 11.3942,11.3942 0 0 1 -1.6956,-0.131 13.0924,13.0924 0 0 1 -0.4918,-0.0838 12.9568,12.9568 0 0 1 -1.1376,-0.2668 9.9078,9.9078 0 0 1 -0.8938,-0.2996 v 3.1642 q 0,1.4326 0.047,2.365 a 22.0196,22.0196 0 0 0 0.0116,0.213 1068.529,1068.529 0 0 0 0.0282,0.4664 q 0.0402,0.6664 0.0696,1.1352 l 3.203,0.4296 z M 94.9218,-0.3124 V 9.414 a 6.1228,6.1228 0 0 0 1.3294,0.7746 7.4892,7.4892 0 0 0 0.702,0.2606 q 1.1718,0.3712 2.3828,0.3712 1.7186,0 3.0272,-0.84 a 5.6214,5.6214 0 0 0 1.7656,-1.8288 6.952,6.952 0 0 0 0.3048,-0.554 7.4662,7.4662 0 0 0 0.6282,-1.915 10.2834,10.2834 0 0 0 0.1726,-1.7372 8.9064,8.9064 0 0 0 0.002,-0.1936 7.811,7.811 0 0 0 -0.6466,-3.1658 6.6728,6.6728 0 0 0 -1.1742,-1.8352 6.1218,6.1218 0 0 0 -0.7594,-0.704 4.5998,4.5998 0 0 0 -2.825,-0.9756 5.7098,5.7098 0 0 0 -0.1046,-8e-4 5.429,5.429 0 0 0 -1.7792,0.286 4.993,4.993 0 0 0 -0.838,0.378 6.671,6.671 0 0 0 -1.269,0.9448 9.0674,9.0674 0 0 0 -0.9186,1.0082 z m 40.3126,12.3436 h -7.2656 l -0.0782,-1.25 2.539,-0.5078 q 0.0746,-0.4474 0.0958,-1.1792 a 17.8984,17.8984 0 0 0 0.002,-0.0708 93.6386,93.6386 0 0 0 0.01,-0.4358 q 0.0146,-0.7214 0.0292,-1.8494 0.015,-1.1514 0.0184,-2.9324 a 585.329,585.329 0 0 0 0.001,-1.1496 v -4.8436 a 262.4074,262.4074 0 0 0 -0.011,-2.3622 298.1902,298.1902 0 0 0 -0.009,-0.8214 2459.4392,2459.4392 0 0 0 -0.0196,-1.6164 2079.6338,2079.6338 0 0 0 -0.0194,-1.5282 604.616,604.616 0 0 0 -0.01,-0.7116 q -0.0142,-0.9888 -0.0284,-1.7204 a 211.0612,211.0612 0 0 0 -0.001,-0.0484 505.3004,505.3004 0 0 1 -0.007,-0.3442 q -0.0106,-0.559 -0.0124,-0.7448 a 6.6072,6.6072 0 0 1 -4e-4,-0.0634 l -2.8906,-0.3906 -0.0782,-1.0156 4.6876,-1.4454 0.5858,0.4688 a 12217.488,12217.488 0 0 1 -0.078,3.3398 229.5646,229.5646 0 0 0 -0.0342,1.753 310.387,310.387 0 0 0 -0.0244,1.9384 377.1368,377.1368 0 0 0 -0.012,1.6278 q -0.004,0.7218 -0.006,1.516 a 692.594,692.594 0 0 0 -0.002,1.6608 l -0.039,6.5626 a 102.4318,102.4318 0 0 0 0.0194,2.0362 81.9804,81.9804 0 0 0 0.0586,1.8896 499.027,499.027 0 0 0 0.0346,0.7882 q 0.0404,0.9064 0.0674,1.4168 a 47.4026,47.4026 0 0 0 0.0152,0.2754 l 2.5392,0.5078 z m -68.6328,0 h -8.0078 l -0.0782,-1.2108 2.422,-0.547 a 2.6658,2.6658 0 0 0 0.0182,-0.133 Q 60.9814,9.917 60.996,9.5508 a 40.616,40.616 0 0 0 0.0098,-0.2686 q 0.0102,-0.302 0.0202,-0.708 a 151.6032,151.6032 0 0 0 0.0092,-0.3906 q 0.0186,-0.8352 0.0194,-2.0758 a 176.2672,176.2672 0 0 0 0,-0.1312 v -3.125 a 40.877,40.877 0 0 0 -0.0976,-2.793 79.707,79.707 0 0 0 -0.0462,-0.639 q -0.06,-0.7846 -0.112,-1.2014 A 7.4722,7.4722 0 0 0 60.7812,-1.914 l -2.5,-0.547 v -1.0936 l 4.4532,-1.25 0.3516,0.4686 -0.1954,3.3594 0.1172,0.0392 a 16.1212,16.1212 0 0 1 0.7,-1.1776 q 0.7502,-1.1392 1.486,-1.727 a 3.789,3.789 0 0 1 0.275,-0.201 6.3594,6.3594 0 0 1 0.7338,-0.4222 q 0.4034,-0.1952 0.7772,-0.2898 a 2.757,2.757 0 0 1 0.6764,-0.0888 3.0858,3.0858 0 0 1 0.5748,0.0504 q 0.339,0.0644 0.6082,0.2106 a 1.723,1.723 0 0 1 0.2038,0.1296 1.252,1.252 0 0 1 0.518,0.9126 1.7214,1.7214 0 0 1 0.0094,0.1812 q 0,0.7422 -0.547,1.1328 a 1.967,1.967 0 0 1 -0.646,0.296 q -0.357,0.0946 -0.7992,0.0946 a 2.6766,2.6766 0 0 1 -1.211,-0.293 3.9676,3.9676 0 0 1 -0.8166,-0.538 3.6012,3.6012 0 0 1 -0.199,-0.1846 l 0.4688,0.3126 a 5.3052,5.3052 0 0 0 -0.6802,0.5594 q -0.2964,0.2854 -0.5896,0.641 a 9.5358,9.5358 0 0 0 -0.1952,0.2448 9.1744,9.1744 0 0 0 -0.6136,0.91 Q 63.455,0.2984 63.1856,0.8638 A 16.0558,16.0558 0 0 0 63.0078,1.25 l 0.039,3.9062 a 149.4842,149.4842 0 0 1 0.038,0.8028 q 0.0188,0.4232 0.0376,0.8924 a 242.3282,242.3282 0 0 1 0.0026,0.0626 753.15,753.15 0 0 0 0.0684,1.6642 685.9014,685.9014 0 0 0 0.0098,0.2304 91.5612,91.5612 0 0 0 0.0194,0.4358 q 0.0294,0.6188 0.0586,1.029 l 3.3984,0.4688 z M 77.182,12.0788 A 7.4768,7.4768 0 0 1 75.1562,11.25 q -1.8358,-1.0938 -2.832,-3.0664 a 9.2368,9.2368 0 0 1 -0.8988,-2.9802 11.7174,11.7174 0 0 1 -0.0972,-1.5316 9.969,9.969 0 0 1 0.2722,-2.3784 7.9924,7.9924 0 0 1 0.8214,-2.0746 8.0284,8.0284 0 0 1 2.9688,-3.0078 8.0952,8.0952 0 0 1 3.9646,-1.0914 9.5878,9.5878 0 0 1 0.2152,-0.0024 8.771,8.771 0 0 1 2.0598,0.2318 6.8876,6.8876 0 0 1 2.0026,0.8228 7.1042,7.1042 0 0 1 2.5998,2.8206 8.496,8.496 0 0 1 0.076,0.1482 8.8636,8.8636 0 0 1 0.799,2.507 11.9484,11.9484 0 0 1 0.158,1.9852 q 0,2.4218 -1.0352,4.3946 -1.035,1.9726 -2.8124,3.1444 -1.7774,1.172 -3.9648,1.172 a 9.3406,9.3406 0 0 1 -2.2712,-0.265 z m 2.6226,-1.2584 a 4.0702,4.0702 0 0 0 2.5978,-0.879 5.4822,5.4822 0 0 0 1.2844,-1.472 7.134,7.134 0 0 0 0.4734,-0.9304 8.1054,8.1054 0 0 0 0.5684,-2.1676 10.2758,10.2758 0 0 0 0.076,-1.2698 12.185,12.185 0 0 0 -0.1992,-2.2712 q -0.2498,-1.3158 -0.8126,-2.362 a 6.7344,6.7344 0 0 0 -0.531,-0.8356 5.3282,5.3282 0 0 0 -1.457,-1.369 Q 80.6826,-3.432 79.2414,-3.4374 a 6.023,6.023 0 0 0 -0.0226,-2e-4 4.9468,4.9468 0 0 0 -2.0976,0.4354 q -1.0042,0.4634 -1.7696,1.4202 a 6.4468,6.4468 0 0 0 -1.19,2.437 q -0.2392,0.9182 -0.284,1.9976 a 12.209,12.209 0 0 0 -0.0104,0.5068 11.3672,11.3672 0 0 0 0.1564,1.9328 8.2486,8.2486 0 0 0 0.6054,2.0124 6.7834,6.7834 0 0 0 0.937,1.5248 5.604,5.604 0 0 0 1.1722,1.073 5.308,5.308 0 0 0 3.0128,0.9176 6.4048,6.4048 0 0 0 0.0536,4e-4 z" />
</svg>
