<svg xmlns="http://www.w3.org/2000/svg" height="170" width="170" version="1.1" viewBox="-10 10 170 170"><circle cy="135.728797603" cx="104.002845479" r="10" stroke="0" fill="#2BB375"/><circle cy="135.169235803" cx="45.2269837774" r="10" stroke="0" fill="#2BB375"/><circle cy="79.0971554259" cx="27.5964185483" r="10" stroke="0" fill="#2BB375"/><circle cy="45.0022657323" cx="75.475991697" r="10" stroke="0" fill="#2BB375"/><circle cy="80.0025454361" cx="122.697760499" r="10" stroke="0" fill="#2BB375"/><circle cy="95" cx="75" r="10" stroke="0" fill="#2BB375"/><path stroke="#2BB375" stroke-width="2" d="M 118.881077801 91.3794049846 Q 113.350302989 107.865671519 108.773698851 121.507723167" fill="transparent"/><path stroke="0" d="M 107.819528176 124.351938054 L 115.740455236 116.461506221 L 106.259738946 113.280937306 Z" fill="#2BB375"/><path stroke="#2BB375" stroke-width="2" d="M 92.0033892543 135.614559595 Q 74.614914628 135.449016703 60.2263040577 135.312033312" fill="transparent"/><path stroke="0" d="M 57.2264400016 135.28347381 L 67.1783876855 140.378445577 L 67.2735860249 130.378898723 Z" fill="#2BB375"/><path stroke="#2BB375" stroke-width="2" d="M 31.7614846678 67.8431683893 Q 39.9350669312 45.7581915381 60.4793833767 45.3212310745" fill="transparent"/><path stroke="0" d="M 63.4787050408 45.257438006 L 53.3746443799 40.4712121274 L 53.5872879414 50.4689510075 Z" fill="#2BB375"/><path stroke="#2BB375" stroke-width="2" d="M 67.5471105732 54.0096429379 Q 41.3900551565 83.7246129381 44.1113275125 120.210782972" fill="transparent"/><path stroke="0" d="M 44.3344587655 123.202473538 L 48.5768388659 112.858286229 L 38.6045369786 113.602057073 Z" fill="#2BB375"/><path stroke="#2BB375" stroke-width="2" d="M 85.1166082897 52.1477896257 Q 99.0868760979 62.5024055842 110.646989758 71.0706405694" fill="transparent"/><path stroke="0" d="M 113.057143906 72.8570215427 L 108.000598368 62.8854947179 L 102.045995123 70.9193418785 Z" fill="#2BB375"/><path stroke="#2BB375" stroke-width="2" d="M 110.002845479 146.121102448 A 10 10 60 1 1 98.0028454786 146.121102448" fill="transparent"/><path stroke="0" d="M 98.0028454786 146.121102448 L 100.25826265 153.161539729 L 91.180069647 148.967924129 Z" fill="#2BB375"/><path stroke="#2BB375" stroke-width="2" d="M 15.5964185483 79.0971554259 A 10 10 180 1 1 21.5964185483 68.7048505805" fill="transparent"/><path stroke="0" d="M 21.5964185483 68.7048505805 L 14.3715124231 67.1378805062 L 22.5423865682 61.3727425456 Z" fill="#2BB375"/></svg>
