<svg version="1.1" xmlns="http://www.w3.org/2000/svg" width="170" height="170" viewBox="-10 -10 170 170">
<g transform="rotate(90.000000 5.000000 0.000000)"><path d="M 5 -1.5 L 39.0 -1.5 L 37.0 -4.5 L 45.0 0 L 37.0 4.5 L 39.0 1.5 L 5 1.5 Z" stroke="#666" stroke-width="0.500000" fill="#503DB3" /></g>
<g transform="rotate(90.000000 20.000000 0.000000)"><path d="M 20 -1.5 L 54.0 -1.5 L 52.0 -4.5 L 60.0 0 L 52.0 4.5 L 54.0 1.5 L 20 1.5 Z" stroke="#666" stroke-width="0.500000" fill="#B32E19" /></g>
<g transform="rotate(90.000000 20.000000 65.000000)"><path d="M 20 63.5 L 44.0 63.5 L 42.0 60.5 L 50.0 65 L 42.0 69.5 L 44.0 66.5 L 20 66.5 Z" stroke="#666" stroke-width="0.500000" fill="#B3A122" /></g>
<g transform="rotate(90.000000 35.000000 0.000000)"><path d="M 35 -1.5 L 124.0 -1.5 L 122.0 -4.5 L 130.0 0 L 122.0 4.5 L 124.0 1.5 L 35 1.5 Z" stroke="#666" stroke-width="0.500000" fill="#BC5C5F" /></g>
<g transform="rotate(90.000000 30.000000 120.000000)"><path d="M 30 118.5 L 54.0 118.5 L 52.0 115.5 L 60.0 120 L 52.0 124.5 L 54.0 121.5 L 30 121.5 Z" stroke="#666" stroke-width="0.500000" fill="#2BB375" /></g>
<rect x="0" y="40" width="25" height="25" fill="#eee" stroke-width="1" stroke="#666" />
<rect x="15" y="95" width="25" height="25" fill="#eee" stroke-width="1" stroke="#666" />
<g transform="translate(100 0)">
<g transform="rotate(90.000000 5.000000 0.000000)"><path d="M 5 -1.5 L 94.0 -1.5 L 92.0 -4.5 L 100.0 0 L 92.0 4.5 L 94.0 1.5 L 5 1.5 Z" stroke="#666" stroke-width="0.500000" fill="#503DB3" /></g>
<g transform="rotate(90.000000 20.000000 0.000000)"><path d="M 20 -1.5 L 54.0 -1.5 L 52.0 -4.5 L 60.0 0 L 52.0 4.5 L 54.0 1.5 L 20 1.5 Z" stroke="#666" stroke-width="0.500000" fill="#B32E19" /></g>
<g transform="rotate(90.000000 20.000000 65.000000)"><path d="M 20 63.5 L 44.0 63.5 L 42.0 60.5 L 50.0 65 L 42.0 69.5 L 44.0 66.5 L 20 66.5 Z" stroke="#666" stroke-width="0.500000" fill="#B36722" /></g>
<g transform="rotate(90.000000 35.000000 0.000000)"><path d="M 35 -1.5 L 69.0 -1.5 L 67.0 -4.5 L 75.0 0 L 67.0 4.5 L 69.0 1.5 L 35 1.5 Z" stroke="#666" stroke-width="0.500000" fill="#BC5C5F" /></g>
<g transform="rotate(90.000000 10.000000 120.000000)"><path d="M 10 118.5 L 34.0 118.5 L 32.0 115.5 L 40.0 120 L 32.0 124.5 L 34.0 121.5 L 10 121.5 Z" stroke="#666" stroke-width="0.500000" fill="#2BB375" /></g>
<rect x="0" y="95" width="25" height="25" fill="#eee" stroke-width="1" stroke="#666" />
<rect x="15" y="40" width="25" height="25" fill="#eee" stroke-width="1" stroke="#666" />
</g>
<rect x="60" y="135" width="25" height="5" stroke="0" fill="#666" />
<rect x="60" y="145" width="25" height="5" stroke="0" fill="#666" />
</svg>
