<svg version="1.1" xmlns="http://www.w3.org/2000/svg" width="170" height="170" viewBox="-10 -10 170 170">
<g transform="rotate(90.000000 5.000000 0.000000)"><path d="M 5 -2.5 L 35.0 -2.5 L 33.0 -7.5 L 45.0 0 L 33.0 7.5 L 35.0 2.5 L 5 2.5 Z" stroke="#666" stroke-width="0.000000" fill="#503DB3" /></g>
<g transform="rotate(90.000000 20.000000 0.000000)"><path d="M 20 -2.5 L 50.0 -2.5 L 48.0 -7.5 L 60.0 0 L 48.0 7.5 L 50.0 2.5 L 20 2.5 Z" stroke="#666" stroke-width="0.000000" fill="#B32E19" /></g>
<g transform="rotate(90.000000 20.000000 65.000000)"><path d="M 20 62.5 L 40.0 62.5 L 38.0 57.5 L 50.0 65 L 38.0 72.5 L 40.0 67.5 L 20 67.5 Z" stroke="#666" stroke-width="0.000000" fill="#4EC1CC" /></g>
<g transform="rotate(90.000000 35.000000 0.000000)"><path d="M 35 -2.5 L 120.0 -2.5 L 118.0 -7.5 L 130.0 0 L 118.0 7.5 L 120.0 2.5 L 35 2.5 Z" stroke="#666" stroke-width="0.000000" fill="#B3A122" /></g>
<g transform="rotate(90.000000 30.000000 120.000000)"><path d="M 30 117.5 L 50.0 117.5 L 48.0 112.5 L 60.0 120 L 48.0 127.5 L 50.0 122.5 L 30 122.5 Z" stroke="#666" stroke-width="0.000000" fill="#2BB375" /></g>
<rect x="0" y="40" width="25" height="25" fill="#eee" stroke-width="1" stroke="#CCC" />
<rect x="15" y="95" width="25" height="25" fill="#eee" stroke-width="1" stroke="#CCC" />
<g transform="translate(100 0)">
<g transform="rotate(90.000000 5.000000 0.000000)"><path d="M 5 -2.5 L 90.0 -2.5 L 88.0 -7.5 L 100.0 0 L 88.0 7.5 L 90.0 2.5 L 5 2.5 Z" stroke="#666" stroke-width="0.000000" fill="#503DB3" /></g>
<g transform="rotate(90.000000 20.000000 0.000000)"><path d="M 20 -2.5 L 50.0 -2.5 L 48.0 -7.5 L 60.0 0 L 48.0 7.5 L 50.0 2.5 L 20 2.5 Z" stroke="#666" stroke-width="0.000000" fill="#B32E19" /></g>
<g transform="rotate(90.000000 20.000000 65.000000)"><path d="M 20 62.5 L 40.0 62.5 L 38.0 57.5 L 50.0 65 L 38.0 72.5 L 40.0 67.5 L 20 67.5 Z" stroke="#666" stroke-width="0.000000" fill="#B751C9" /></g>
<g transform="rotate(90.000000 35.000000 0.000000)"><path d="M 35 -2.5 L 65.0 -2.5 L 63.0 -7.5 L 75.0 0 L 63.0 7.5 L 65.0 2.5 L 35 2.5 Z" stroke="#666" stroke-width="0.000000" fill="#B3A122" /></g>
<g transform="rotate(90.000000 10.000000 120.000000)"><path d="M 10 117.5 L 30.0 117.5 L 28.0 112.5 L 40.0 120 L 28.0 127.5 L 30.0 122.5 L 10 122.5 Z" stroke="#666" stroke-width="0.000000" fill="#2BB375" /></g>
<rect x="0" y="95" width="25" height="25" fill="#eee" stroke-width="1" stroke="#CCC" />
<rect x="15" y="40" width="25" height="25" fill="#eee" stroke-width="1" stroke="#CCC" />
</g>
<rect x="60" y="135" width="25" height="5" stroke="0" fill="#666" />
<rect x="60" y="145" width="25" height="5" stroke="0" fill="#666" />
</svg>
