<svg version="1.1" xmlns="http://www.w3.org/2000/svg" width="170" height="170" viewBox="-10 -10 170 170">
<g transform="rotate(90.000000 15.000000 0.000000)"><path d="M 15 -2.5 L 70.0 -2.5 L 68.0 -7.5 L 80.0 0 L 68.0 7.5 L 70.0 2.5 L 15 2.5 Z" stroke="#666" stroke-width="0.000000" fill="#503DB3" /></g>
<g transform="rotate(90.000000 30.000000 0.000000)"><path d="M 30 -2.5 L 85.0 -2.5 L 83.0 -7.5 L 95.0 0 L 83.0 7.5 L 85.0 2.5 L 30 2.5 Z" stroke="#666" stroke-width="0.000000" fill="#B32E19" /></g>
<g transform="rotate(90.000000 22.500000 90.000000)"><path d="M 22.5 87.5 L 72.5 87.5 L 70.5 82.5 L 82.5 90 L 70.5 97.5 L 72.5 92.5 L 22.5 92.5 Z" stroke="#666" stroke-width="0.000000" fill="#2BB375" /></g>
<rect x="10" y="65" width="25" height="25" fill="#eee" stroke-width="1" stroke="#CCC" />
<g transform="translate(100 0)">
<g transform="rotate(77.005383 15.000000 0.000000)"><path d="M 15 -2.5 Q 37.236106773543895 0.5 48.354160160315836 -2.5 Q 59.47221354708778 -5.5 71.70832032063167 -2.5 L 71.70832032063167 -2.5 L 69.70832032063167 -7.5 L 81.70832032063167 0 L 69.70832032063167 7.5 L 71.70832032063167 2.5 L 71.70832032063167 2.5 Q 59.47221354708778 -0.5 48.354160160315836 2.5 Q 37.236106773543895 5.5 15 2.5 Z" stroke="#666" stroke-width="0.000000" fill="#503DB3" /></g>
<g transform="rotate(102.994617 30.000000 0.000000)"><path d="M 30 -2.5 Q 52.236106773543895 -5.5 63.354160160315836 -2.5 Q 74.47221354708779 0.5 86.70832032063167 -2.5 L 86.70832032063167 -2.5 L 84.70832032063167 -7.5 L 96.70832032063167 0 L 84.70832032063167 7.5 L 86.70832032063167 2.5 L 86.70832032063167 2.5 Q 74.47221354708779 5.5 63.354160160315836 2.5 Q 52.236106773543895 -0.5 30 2.5 Z" stroke="#666" stroke-width="0.000000" fill="#B32E19" /></g>
<g transform="rotate(90.000000 22.500000 90.000000)"><path d="M 22.5 87.5 L 72.5 87.5 L 70.5 82.5 L 82.5 90 L 70.5 97.5 L 72.5 92.5 L 22.5 92.5 Z" stroke="#666" stroke-width="0.000000" fill="#2BB375" /></g>
<rect x="10" y="65" width="25" height="25" fill="#eee" stroke-width="1" stroke="#CCC" />
</g>
<rect x="65" y="135" width="25" height="5" stroke="0" fill="#666" />
<rect x="65" y="145" width="25" height="5" stroke="0" fill="#666" />
</svg>
