<svg version="1.1" xmlns="http://www.w3.org/2000/svg" width="170" height="170" viewBox="-10 -10 170 170">
<g transform="rotate(90.000000 10.000000 0.000000)"><path d="M 10 -2.5 L 50.0 -2.5 L 48.0 -7.5 L 60.0 0 L 48.0 7.5 L 50.0 2.5 L 10 2.5 Z" stroke="#333" stroke-width="0.500000" fill="#503DB3" /></g>
<g transform="rotate(90.000000 40.000000 0.000000)"><path d="M 40 -2.5 L 80.0 -2.5 L 78.0 -7.5 L 90.0 0 L 78.0 7.5 L 80.0 2.5 L 40 2.5 Z" stroke="#333" stroke-width="0.500000" fill="#B32E19" /></g>
<g transform="rotate(90.000000 25.000000 100.000000)"><path d="M 25 97.5 L 65.0 97.5 L 63.0 92.5 L 75.0 100 L 63.0 107.5 L 65.0 102.5 L 25 102.5 Z" stroke="#333" stroke-width="0.500000" fill="#2BB375" /></g>
<rect x="0" y="50" width="50" height="50" fill="#eee" stroke-width="1" stroke="#666" />
<g transform="translate(100 0)">
<g transform="rotate(59.036243 10.000000 0.000000)"><path d="M 10 -2.5 Q 29.436506316151 2.5 39.1547594742265 -2.5 Q 48.873012632302 -7.5 58.309518948453004 -2.5 L 58.309518948453004 -2.5 L 56.309518948453004 -7.5 L 68.309518948453 0 L 56.309518948453004 7.5 L 58.309518948453004 2.5 L 58.309518948453004 2.5 Q 48.873012632302 -2.5 39.1547594742265 2.5 Q 29.436506316151 7.5 10 2.5 Z" stroke="#333" stroke-width="0.500000" fill="#503DB3" /></g>
<g transform="rotate(120.963757 40.000000 0.000000)"><path d="M 40 -2.5 Q 59.436506316151 -7.5 69.1547594742265 -2.5 Q 78.873012632302 2.5 88.309518948453 -2.5 L 88.309518948453 -2.5 L 86.309518948453 -7.5 L 98.309518948453 0 L 86.309518948453 7.5 L 88.309518948453 2.5 L 88.309518948453 2.5 Q 78.873012632302 7.5 69.1547594742265 2.5 Q 59.436506316151 -2.5 40 2.5 Z" stroke="#333" stroke-width="0.500000" fill="#B32E19" /></g>
<g transform="rotate(90.000000 25.000000 100.000000)"><path d="M 25 97.5 L 65.0 97.5 L 63.0 92.5 L 75.0 100 L 63.0 107.5 L 65.0 102.5 L 25 102.5 Z" stroke="#333" stroke-width="0.500000" fill="#2BB375" /></g>
<rect x="0" y="50" width="50" height="50" fill="#eee" stroke-width="1" stroke="#666" />
</g>
<rect x="65" y="135" width="25" height="5" stroke="0" fill="#333" />
<rect x="65" y="145" width="25" height="5" stroke="0" fill="#333" />
</svg>
