<svg xmlns="http://www.w3.org/2000/svg" height="170" width="170" version="1.1" viewBox="-10 10 170 170"><circle cy="60" cx="20" r="10" stroke="0" fill="#2BB375"/><circle cy="60" cx="120" r="10" stroke="0" fill="#2BB375"/><circle cy="90" cx="70" r="10" stroke="0" fill="#2BB375"/><circle cy="150" cx="70" r="10" stroke="0" fill="#2BB375"/><path stroke="#2BB375" stroke-width="2" d="M 110.629574287 52.5036594293 Q 70.0 20.0 31.7130321416 50.6295742867" fill="transparent"/><path stroke="0" d="M 29.3704257133 52.5036594293 L 40.3025890455 50.161053001 L 34.05563857 42.3523649066 Z" fill="#2BB375"/><path stroke="#2BB375" stroke-width="2" d="M 59.7100848914 83.8260509349 Q 45.0 75.0 32.8623938857 67.7174363314" fill="transparent"/><path stroke="0" d="M 30.2899151086 66.1739490651 L 36.2923655885 75.606371248 L 41.4373231428 67.0314419908 Z" fill="#2BB375"/><path stroke="#2BB375" stroke-width="2" d="M 80.2899151086 83.8260509349 Q 95.0 75.0 107.137606114 67.7174363314" fill="transparent"/><path stroke="0" d="M 109.710084891 66.1739490651 L 98.5626768572 67.0314419908 L 103.707634411 75.606371248 Z" fill="#2BB375"/><path stroke="#2BB375" stroke-width="2" d="M 19.7533374193 71.997464631 Q 18.7752817164 119.569287935 57.1039513997 142.338934115" fill="transparent"/><path stroke="0" d="M 59.6831611198 143.871147292 L 53.6394840147 134.465087168 L 48.5321067578 143.062452902 Z" fill="#2BB375"/><path stroke="#2BB375" stroke-width="2" d="M 120.246662581 71.997464631 Q 121.224718284 119.569287935 82.8960486003 142.338934115" fill="transparent"/><path stroke="0" d="M 80.3168388802 143.871147292 L 91.4678932422 143.062452902 L 86.3605159853 134.465087168 Z" fill="#2BB375"/><path stroke="#2BB375" stroke-width="2" d="M 64.633436854 100.733126292 Q 55.0 120.0 63.2917960675 136.583592135" fill="transparent"/><path stroke="0" d="M 64.633436854 139.266873708 L 64.633436854 128.086533821 L 55.689164944 132.558669776 Z" fill="#2BB375"/><path stroke="#2BB375" stroke-width="2" d="M 75.366563146 139.266873708 Q 85.0 120.0 76.7082039325 103.416407865" fill="transparent"/><path stroke="0" d="M 75.366563146 100.733126292 L 75.366563146 111.913466179 L 84.310835056 107.441330224 Z" fill="#2BB375"/><path stroke="#2BB375" stroke-width="2" d="M 64.0 79.6076951546 A 10 10 -120 1 1 76.0 79.6076951546" fill="transparent"/><path stroke="0" d="M 76.0 79.6076951546 L 73.7445828288 72.5672578731 L 82.8227758315 76.7608734736 Z" fill="#2BB375"/></svg>
