<svg version="1.1" xmlns="http://www.w3.org/2000/svg" width="170" height="170" viewBox="-10 -10 170 170">
<g transform="rotate(106.389540 25.000000 -0.500000)"><path d="M 25 -3.5 Q 42.72004514666935 -8.5 51.580067720004024 -3.5 Q 60.4400902933387 1.5 67.16013544000805 -3.5 L 67.16013544000805 -3.5 L 64.16013544000805 -9.5 L 78.16013544000805 -0.5 L 64.16013544000805 8.5 L 67.16013544000805 2.5 L 67.16013544000805 2.5 Q 60.4400902933387 7.5 51.580067720004024 2.5 Q 42.72004514666935 -2.5 25 2.5 Z" stroke="#666" stroke-width="0.000000" fill="#666" /></g>
<g transform="rotate(73.610460 25.000000 -0.500000)"><path d="M 25 -3.5 Q 42.72004514666935 1.5 51.580067720004024 -3.5 Q 60.4400902933387 -8.5 67.16013544000805 -3.5 L 67.16013544000805 -3.5 L 64.16013544000805 -9.5 L 78.16013544000805 -0.5 L 64.16013544000805 8.5 L 67.16013544000805 2.5 L 67.16013544000805 2.5 Q 60.4400902933387 -2.5 51.580067720004024 2.5 Q 42.72004514666935 7.5 25 2.5 Z" stroke="#666" stroke-width="0.000000" fill="#666" /></g>
<g transform="rotate(106.699244 25.000000 0.000000)"><path d="M 25 -2.5 Q 42.400510848184254 -7.5 51.100766272276374 -2.5 Q 59.8010216963685 2.5 67.20153254455275 -2.5 L 67.20153254455275 -2.5 L 65.20153254455275 -7.5 L 77.20153254455275 0 L 65.20153254455275 7.5 L 67.20153254455275 2.5 L 67.20153254455275 2.5 Q 59.8010216963685 7.5 51.100766272276374 2.5 Q 42.400510848184254 -2.5 25 2.5 Z" stroke="#666" stroke-width="0.000000" fill="#2BB375" /></g>
<g transform="rotate(73.300756 25.000000 0.000000)"><path d="M 25 -2.5 Q 42.400510848184254 2.5 51.100766272276374 -2.5 Q 59.8010216963685 -7.5 67.20153254455275 -2.5 L 67.20153254455275 -2.5 L 65.20153254455275 -7.5 L 77.20153254455275 0 L 65.20153254455275 7.5 L 67.20153254455275 2.5 L 67.20153254455275 2.5 Q 59.8010216963685 -2.5 51.100766272276374 2.5 Q 42.400510848184254 7.5 25 2.5 Z" stroke="#666" stroke-width="0.000000" fill="#2BB375" /></g>
<g transform="rotate(90.000000 25.000000 100.000000)"><path d="M 25 97.5 L 65.0 97.5 L 63.0 92.5 L 75.0 100 L 63.0 107.5 L 65.0 102.5 L 25 102.5 Z" stroke="#666" stroke-width="0.500000" fill="#2BB375" /></g>
<rect x="0" y="50" width="50" height="50" fill="#eee" stroke-width="1" stroke="#666" />
<g transform="translate(100 0)">
<g transform="rotate(90.000000 25.000000 0.000000)"><path d="M 25 -2.5 L 165.0 -2.5 L 163.0 -7.5 L 175.0 0 L 163.0 7.5 L 165.0 2.5 L 25 2.5 Z" stroke="#666" stroke-width="0.500000" fill="#2BB375" /></g>
</g>
<rect x="65" y="135" width="25" height="5" stroke="0" fill="#666" />
<rect x="65" y="145" width="25" height="5" stroke="0" fill="#666" />
</svg>
