<svg version="1.1" xmlns="http://www.w3.org/2000/svg" width="170" height="170" viewBox="-10 -10 170 170">
<g transform="rotate(96.581945 22.500000 0.000000)"><path d="M 22.5 -2.5 Q 44.310420547170665 -5.5 55.215630820756004 -2.5 Q 66.12084109434133 0.5 77.93126164151201 -2.5 L 77.93126164151201 -2.5 L 75.93126164151201 -7.5 L 87.93126164151201 0 L 75.93126164151201 7.5 L 77.93126164151201 2.5 L 77.93126164151201 2.5 Q 66.12084109434133 5.5 55.215630820756004 2.5 Q 44.310420547170665 -0.5 22.5 2.5 Z" stroke="#666" stroke-width="0.000000" fill="#2BB375" /></g>
<g transform="rotate(83.418055 22.500000 0.000000)"><path d="M 22.5 -2.5 Q 44.310420547170665 0.5 55.215630820756004 -2.5 Q 66.12084109434133 -5.5 77.93126164151201 -2.5 L 77.93126164151201 -2.5 L 75.93126164151201 -7.5 L 87.93126164151201 0 L 75.93126164151201 7.5 L 77.93126164151201 2.5 L 77.93126164151201 2.5 Q 66.12084109434133 -0.5 55.215630820756004 2.5 Q 44.310420547170665 5.5 22.5 2.5 Z" stroke="#666" stroke-width="0.000000" fill="#2BB375" /></g>
<g transform="rotate(90.000000 22.500000 90.000000)"><path d="M 22.5 87.5 L 72.5 87.5 L 70.5 82.5 L 82.5 90 L 70.5 97.5 L 72.5 92.5 L 22.5 92.5 Z" stroke="#666" stroke-width="0.000000" fill="#2BB375" /></g>
<rect x="10" y="65" width="25" height="25" fill="#eee" stroke-width="1" stroke="#CCC" />
<g transform="translate(100 0)">
<g transform="rotate(90.000000 22.500000 0.000000)"><path d="M 22.5 -2.5 L 162.5 -2.5 L 160.5 -7.5 L 172.5 0 L 160.5 7.5 L 162.5 2.5 L 22.5 2.5 Z" stroke="#666" stroke-width="0.000000" fill="#2BB375" /></g>
</g>
<rect x="65" y="135" width="25" height="5" stroke="0" fill="#666" />
<rect x="65" y="145" width="25" height="5" stroke="0" fill="#666" />
</svg>
