<svg xmlns="http://www.w3.org/2000/svg" height="170" width="170" version="1.1" viewBox="-10 10 170 170"><circle cy="50" cx="30" r="10" stroke="0" fill="#2BB375"/><circle cy="50" cx="110" r="10" stroke="0" fill="#2BB375"/><circle cy="140" cx="50" r="10" stroke="0" fill="#2BB375"/><circle cy="110" cx="80" r="10" stroke="0" fill="#2BB375"/><path stroke="#AAA" stroke-width="2" d="M 40.733126292 55.366563146 Q 70.0 70.0 96.583592135 56.7082039325" fill="transparent"/><path stroke="0" d="M 99.266873708 55.366563146 L 88.0865338205 55.366563146 L 92.5586697755 64.310835056 Z" fill="#AAA"/><path stroke="#AAA" stroke-width="2" d="M 99.266873708 44.633436854 Q 70.0 30.0 43.416407865 43.2917960675" fill="transparent"/><path stroke="0" d="M 40.733126292 44.633436854 L 51.9134661795 44.633436854 L 47.4413302245 35.689164944 Z" fill="#AAA"/><path stroke="#AAA" stroke-width="2" d="M 58.4852813742 131.514718626 Q 65.0 125.0 69.3933982822 120.606601718" fill="transparent"/><path stroke="0" d="M 71.5147186258 118.485281374 L 60.908116908 122.02081528 L 67.9791847198 129.091883092 Z" fill="#AAA"/><path stroke="#2BB375" stroke-width="2" d="M 19.6076951546 56.0 A 10 10 150 1 1 19.6076951546 44.0" fill="transparent"/><path stroke="0" d="M 19.6076951546 44.0 L 12.5672578731 46.2554171712 L 16.7608734736 37.1772241685 Z" fill="#2BB375"/><path stroke="#2BB375" stroke-width="2" d="M 120.392304845 44.0 A 10 10 -30 1 1 120.392304845 56.0" fill="transparent"/><path stroke="0" d="M 120.392304845 56.0 L 127.432742127 53.7445828288 L 123.239126526 62.8227758315 Z" fill="#2BB375"/><path stroke="#2BB375" stroke-width="2" d="M 50.0 152.0 A 10 10 90 1 1 39.6076951546 146.0" fill="transparent"/><path stroke="0" d="M 39.6076951546 146.0 L 38.0407250802 153.224906125 L 32.2755871197 145.05403198 Z" fill="#2BB375"/><path stroke="#2BB375" stroke-width="2" d="M 80.0 98.0 A 10 10 -90 1 1 90.3923048454 104.0" fill="transparent"/><path stroke="0" d="M 90.3923048454 104.0 L 91.9592749198 96.7750938749 L 97.7244128803 104.94596802 Z" fill="#2BB375"/></svg>
