<svg version="1.1" xmlns="http://www.w3.org/2000/svg" width="170" height="170" viewBox="-10 -10 170 170">
<g transform="rotate(90.000000 5.000000 0.000000)"><path d="M 5 -2.5 L 60.0 -2.5 L 58.0 -7.5 L 70.0 0 L 58.0 7.5 L 60.0 2.5 L 5 2.5 Z" stroke="#666" stroke-width="0.000000" fill="#503DB3" /></g>
<g transform="rotate(90.000000 20.000000 0.000000)"><path d="M 20 -2.5 L 75.0 -2.5 L 73.0 -7.5 L 85.0 0 L 73.0 7.5 L 75.0 2.5 L 20 2.5 Z" stroke="#666" stroke-width="0.000000" fill="#B32E19" /></g>
<g transform="rotate(90.000000 12.500000 90.000000)"><path d="M 12.5 87.5 L 62.5 87.5 L 60.5 82.5 L 72.5 90 L 60.5 97.5 L 62.5 92.5 L 12.5 92.5 Z" stroke="#666" stroke-width="0.000000" fill="#2BB375" /></g>
<rect x="0" y="65" width="25" height="25" fill="#eee" stroke-width="1" stroke="#CCC" />
<g transform="translate(70 0)">
<g transform="rotate(90.000000 5.000000 0.000000)"><path d="M 5 -2.5 L 60.0 -2.5 L 58.0 -7.5 L 70.0 0 L 58.0 7.5 L 60.0 2.5 L 5 2.5 Z" stroke="#666" stroke-width="0.000000" fill="#503DB3" /></g>
<g transform="rotate(90.000000 20.000000 0.000000)"><path d="M 20 -2.5 L 75.0 -2.5 L 73.0 -7.5 L 85.0 0 L 73.0 7.5 L 75.0 2.5 L 20 2.5 Z" stroke="#666" stroke-width="0.000000" fill="#B32E19" /></g>
<g transform="rotate(90.000000 12.500000 90.000000)"><path d="M 12.5 87.5 L 62.5 87.5 L 60.5 82.5 L 72.5 90 L 60.5 97.5 L 62.5 92.5 L 12.5 92.5 Z" stroke="#666" stroke-width="0.000000" fill="#503DB3" /></g>
<rect x="0" y="65" width="25" height="25" fill="#eee" stroke-width="1" stroke="#CCC" />
</g>
<g transform="translate(125 0)">
<g transform="rotate(90.000000 5.000000 0.000000)"><path d="M 5 -2.5 L 60.0 -2.5 L 58.0 -7.5 L 70.0 0 L 58.0 7.5 L 60.0 2.5 L 5 2.5 Z" stroke="#666" stroke-width="0.000000" fill="#503DB3" /></g>
<g transform="rotate(90.000000 20.000000 0.000000)"><path d="M 20 -2.5 L 75.0 -2.5 L 73.0 -7.5 L 85.0 0 L 73.0 7.5 L 75.0 2.5 L 20 2.5 Z" stroke="#666" stroke-width="0.000000" fill="#B32E19" /></g>
<g transform="rotate(90.000000 12.500000 90.000000)"><path d="M 12.5 87.5 L 62.5 87.5 L 60.5 82.5 L 72.5 90 L 60.5 97.5 L 62.5 92.5 L 12.5 92.5 Z" stroke="#666" stroke-width="0.000000" fill="#B32E19" /></g>
<rect x="0" y="65" width="25" height="25" fill="#eee" stroke-width="1" stroke="#CCC" />
</g>
<rect x="35" y="135" width="25" height="5" stroke="0" fill="#666" />
<rect x="35" y="145" width="25" height="5" stroke="0" fill="#666" />
<path d="M 115 135 h 5 l -10 15 h -5 Z" stroke="0" fill="#666" />
</svg>
