<svg xmlns="http://www.w3.org/2000/svg" height="170" width="170" version="1.1" viewBox="-10 10 170 170"><circle cy="50" cx="10" r="10" stroke="0" fill="#2BB375"/><circle cy="50" cx="110" r="10" stroke="0" fill="#2BB375"/><circle cy="90" cx="60" r="10" stroke="0" fill="#2BB375"/><circle cy="130" cx="120" r="10" stroke="0" fill="#2BB375"/><circle cy="150" cx="40" r="10" stroke="0" fill="#2BB375"/><path stroke="#2BB375" stroke-width="2" d="M 15.3048534233 60.7637600381 Q 25.6295742867 81.7130321416 45.4178633435 86.4841372991" fill="transparent"/><path stroke="0" d="M 48.3342906748 87.1873098393 L 39.7848204708 79.9826891532 L 37.4409120035 89.7041135909 Z" fill="#2BB375"/><path stroke="#2BB375" stroke-width="2" d="M 54.6951465767 79.2362399619 Q 44.3704257133 58.2869678584 24.5821366565 53.5158627009" fill="transparent"/><path stroke="0" d="M 21.6657093252 52.8126901607 L 30.2151795292 60.0173108468 L 32.5590879965 50.2958864091 Z" fill="#2BB375"/><path stroke="#2BB375" stroke-width="2" d="M 98.3342906748 52.8126901607 Q 75.6295742867 58.2869678584 66.6310667791 76.5452999524" fill="transparent"/><path stroke="0" d="M 65.3048534233 79.2362399619 L 74.2104646252 72.4767955232 L 65.2406645935 68.0560843371 Z" fill="#2BB375"/><path stroke="#2BB375" stroke-width="2" d="M 71.6657093252 87.1873098393 Q 94.3704257133 81.7130321416 103.368933221 63.4547000476" fill="transparent"/><path stroke="0" d="M 104.695146577 60.7637600381 L 95.7895353748 67.5232044768 L 104.759335407 71.9439156629 Z" fill="#2BB375"/><path stroke="#2BB375" stroke-width="2" d="M 98.3342906748 52.8126901607 Q 75.6295742867 58.2869678584 66.6310667791 76.5452999524" fill="transparent"/><path stroke="0" d="M 65.3048534233 79.2362399619 L 74.2104646252 72.4767955232 L 65.2406645935 68.0560843371 Z" fill="#2BB375"/><path stroke="#2BB375" stroke-width="2" d="M 71.6657093252 87.1873098393 Q 94.3704257133 81.7130321416 103.368933221 63.4547000476" fill="transparent"/><path stroke="0" d="M 104.695146577 60.7637600381 L 95.7895353748 67.5232044768 L 104.759335407 71.9439156629 Z" fill="#2BB375"/><path stroke="#2BB375" stroke-width="2" d="M 108.064762673 128.754965887 Q 76.3619656245 125.447862498 52.4314916913 141.606072771" fill="transparent"/><path stroke="0" d="M 49.945193353 143.284858217 L 61.0308302236 141.832737294 L 55.4348787375 133.545076167 Z" fill="#2BB375"/><path stroke="#2BB375" stroke-width="2" d="M 51.9352373272 151.245034113 Q 83.6380343755 154.552137502 107.568508309 138.393927229" fill="transparent"/><path stroke="0" d="M 110.054806647 136.715141783 L 98.9691697764 138.167262706 L 104.565121262 146.454923833 Z" fill="#2BB375"/><path stroke="#2BB375" stroke-width="2" d="M 116.0 39.6076951546 A 10 10 -60 1 1 122.0 50.0" fill="transparent"/><path stroke="0" d="M 122.0 50.0 L 126.969488954 44.5265327928 L 127.876807812 54.4852863539 Z" fill="#2BB375"/><path stroke="#2BB375" stroke-width="2" d="M 28.7236885506 154.10424172 A 10 10 160 1 1 30.8074666826 142.286548684" fill="transparent"/><path stroke="0" d="M 30.8074666826 142.286548684 L 23.4823403815 143.285141896 L 29.1886572095 135.073080751 Z" fill="#2BB375"/></svg>
