<svg xmlns="http://www.w3.org/2000/svg" height="170" width="170" version="1.1" viewBox="-10 10 170 170"><circle cy="70" cx="20" r="10" stroke="0" fill="#2BB375"/><circle cy="70" cx="120" r="10" stroke="0" fill="#2BB375"/><circle cy="130" cx="70" r="10" stroke="0" fill="#2BB375"/><circle cy="80" cx="55" r="10" stroke="0" fill="#2BB375"/><path stroke="#2BB375" stroke-width="2" d="M 30.2899151086 63.8260509349 Q 70.0 40.0 107.137606114 62.2825636686" fill="transparent"/><path stroke="0" d="M 109.710084891 63.8260509349 L 103.707634411 54.393628752 L 98.5626768572 62.9685580092 Z" fill="#2BB375"/><path stroke="#2BB375" stroke-width="2" d="M 20.4760011733 81.9905555702 Q 21.9533616121 119.20553199 55.3648089896 126.71196349" fill="transparent"/><path stroke="0" d="M 58.2918471917 127.369570792 L 49.6310653546 120.299149449 L 47.4390410148 130.055943456 Z" fill="#2BB375"/><path stroke="#2BB375" stroke-width="2" d="M 108.960112299 74.7032839102 Q 79.6355744081 87.1963120067 73.2942268422 115.366201125" fill="transparent"/><path stroke="0" d="M 72.6353814737 118.2929609 L 79.7094656602 109.635170597 L 69.9535997436 107.439019369 Z" fill="#2BB375"/><path stroke="#2BB375" stroke-width="2" d="M 81.0398877014 125.29671609 Q 110.364425592 112.803687993 116.705773158 84.6337988749" fill="transparent"/><path stroke="0" d="M 117.364618526 81.7070391 L 110.29053434 90.3648294025 L 120.046400256 92.5609806306 Z" fill="#2BB375"/><path stroke="#2BB375" stroke-width="2" d="M 126.0 59.6076951546 A 10 10 -60 1 1 132.0 70.0" fill="transparent"/><path stroke="0" d="M 132.0 70.0 L 136.969488954 64.5265327928 L 137.876807812 74.4852863539 Z" fill="#2BB375"/><path stroke="#2BB375" stroke-width="2" d="M 76.0 140.392304845 A 10 10 60 1 1 64.0 140.392304845" fill="transparent"/><path stroke="0" d="M 64.0 140.392304845 L 66.2554171712 147.432742127 L 57.1772241685 143.239126526 Z" fill="#2BB375"/></svg>
