<svg version="1.1" xmlns="http://www.w3.org/2000/svg" width="170" height="170" viewBox="-10 10 170 170"><circle cx="10" cy="30" r="10" stroke="0" fill="#2BB375"/><circle cx="70" cy="90" r="10" stroke="0" fill="#2BB375"/><circle cx="130" cy="150" r="10" stroke="0" fill="#2BB375"/><circle cx="30" cy="130" r="10" stroke="0" fill="#2BB375"/><path d="M 18.485281374238568 38.48528137423857 Q 40.0 60.0 59.39339828220179 79.39339828220179" stroke="#2BB375" fill="transparent" stroke-width="2"/><path d="M 61.51471862576143 81.51471862576143 L 57.979184719828694 70.90811690796322 L 50.90811690796322 77.9791847198287 Z" stroke="0" fill="#2BB375"/><path d="M 21.99480406600231 29.646905935741675 Q 133.63961030678928 26.360389693210728 130.44136758032292 135.00649491749712" stroke="#2BB375" fill="transparent" stroke-width="2"/><path d="M 130.35309406425833 138.0051959339977 L 135.6451741453079 128.15664840577006 L 125.64950409030595 127.86240335222146 Z" stroke="0" fill="#2BB375"/><path d="M 75.17157287525382 100.82842712474618 Q 89.39339828220179 130.6066017177982 116.46446609406726 143.53553390593274" stroke="#2BB375" fill="transparent" stroke-width="2"/><path d="M 119.17157287525382 144.82842712474618 L 112.30270563598773 136.00693842672376 L 107.99306157327624 145.0306276973456 Z" stroke="0" fill="#2BB375"/><path d="M 124.82842712474618 139.17157287525382 Q 110.60660171779821 109.39339828220179 83.53553390593274 96.46446609406726" stroke="#2BB375" fill="transparent" stroke-width="2"/><path d="M 80.82842712474618 95.17157287525382 L 87.69729436401227 103.99306157327624 L 92.00693842672376 94.96937230265442 Z" stroke="0" fill="#2BB375"/><path d="M 70.0 78.0 A 10 10 -90 1 1 80.39230484541326 84.0" stroke="#2BB375" fill="transparent" stroke-width="2"/><path d="M 80.39230484541326 84.0 L 81.9592749197521 76.77509387487103 L 87.72441288034877 84.94596801998472 Z" fill="#2BB375" stroke="0"/><path d="M 141.2763114494309 154.10424171990803 A 10 10 20 1 1 132.08377813200318 161.8176930361465" stroke="#2BB375" fill="transparent" stroke-width="2"/><path d="M 132.08377813200318 161.8176930361465 L 138.33703377424538 165.76122668042618 L 128.68713032313613 168.38408073360378 Z" fill="#2BB375" stroke="0"/></svg>
